<?xml version="1.0" encoding="UTF-8"?>
<!DOCTYPE svg PUBLIC "-//W3C//DTD SVG 1.0//EN" "http://www.w3.org/TR/2001/REC-SVG-20010904/DTD/svg10.dtd">
<!-- Creator: CorelDRAW 2020 (64-Bit) -->
<svg xmlns="http://www.w3.org/2000/svg" xml:space="preserve" width="157px" height="50px" version="1.0" style="shape-rendering:geometricPrecision; text-rendering:geometricPrecision; image-rendering:optimizeQuality; fill-rule:evenodd; clip-rule:evenodd"
viewBox="0 0 24.363 7.757"
 xmlns:xlink="http://www.w3.org/1999/xlink"
 xmlns:xodm="http://www.corel.com/coreldraw/odm/2003">
 <defs>
  <style type="text/css">
   <![CDATA[
    .fil2 {fill:#2F373A}
    .fil1 {fill:#434C51}
    .fil0 {fill:#5B666C}
    .fil3 {fill:#C3CCD1}
    .fil4 {fill:white}
    .fil5 {fill:#4D4D4D;fill-rule:nonzero}
   ]]>
  </style>
 </defs>
 <g id="Слой_x0020_1">
  <metadata id="CorelCorpID_0Corel-Layer"/>
  <g id="_1988703285120">
   <g>
    <rect class="fil0" width="7.757" height="7.757"/>
    <polygon class="fil1" points="0,0 7.757,0 7.757,1.477 4.903,7.757 0,7.757 "/>
    <polygon class="fil2" points="0,0 4.571,0 0.887,7.757 0,7.757 "/>
    <polygon class="fil1" points="0,0 1.441,0 0,2.715 "/>
   </g>
   <polygon class="fil3" points="0,7.757 1.828,7.757 3.292,4.505 2.327,2.66 "/>
   <polygon class="fil3" points="7.757,0 5.928,0 3.601,5.097 5.43,5.097 "/>
   <polygon class="fil4" points="2.327,2.66 4.705,2.681 3.601,5.097 "/>
  </g>
  <path class="fil5" d="M8.527 2.881l0 -2.666 1.798 0 0 0.313 -1.445 0 0 0.83 1.251 0 0 0.313 -1.251 0 0 1.21 -0.353 0zm2.315 0l0 -2.666 0.354 0 0 2.666 -0.354 0zm0.971 0l0 -2.666 0.362 0 1.399 2.092 0 -2.092 0.339 0 0 2.666 -0.362 0 -1.399 -2.093 0 2.093 -0.339 0zm2.4 0l1.023 -2.666 0.388 0 1.085 2.666 -0.401 0 -0.309 -0.808 -1.122 0 -0.289 0.808 -0.375 0zm0.767 -1.095l0.909 0 -0.278 -0.739c-0.084,-0.225 -0.147,-0.41 -0.191,-0.557 -0.037,0.174 -0.086,0.345 -0.147,0.514l-0.293 0.782zm2.005 1.095l0 -2.666 0.363 0 1.399 2.092 0 -2.092 0.338 0 0 2.666 -0.362 0 -1.399 -2.093 0 2.093 -0.339 0zm4.592 -0.935l0.354 0.089c-0.074,0.29 -0.207,0.51 -0.399,0.662 -0.192,0.152 -0.426,0.228 -0.704,0.228 -0.286,0 -0.52,-0.058 -0.699,-0.175 -0.18,-0.117 -0.317,-0.286 -0.411,-0.508 -0.093,-0.222 -0.141,-0.46 -0.141,-0.714 0,-0.277 0.053,-0.519 0.159,-0.726 0.106,-0.207 0.257,-0.364 0.453,-0.471 0.195,-0.107 0.411,-0.161 0.645,-0.161 0.267,0 0.491,0.068 0.672,0.204 0.182,0.136 0.309,0.326 0.38,0.572l-0.346 0.082c-0.062,-0.194 -0.152,-0.335 -0.269,-0.423 -0.117,-0.089 -0.265,-0.133 -0.443,-0.133 -0.204,0 -0.376,0.049 -0.513,0.147 -0.137,0.098 -0.234,0.23 -0.289,0.395 -0.056,0.166 -0.084,0.337 -0.084,0.512 0,0.227 0.033,0.425 0.099,0.593 0.066,0.17 0.168,0.296 0.307,0.38 0.139,0.083 0.289,0.125 0.451,0.125 0.198,0 0.364,-0.057 0.501,-0.171 0.136,-0.114 0.229,-0.283 0.277,-0.507zm0.797 0.935l0 -2.666 1.925 0 0 0.313 -1.571 0 0 0.819 1.471 0 0 0.313 -1.471 0 0 0.908 1.635 0 0 0.313 -1.989 0z"/>
  <path class="fil5" d="M8.509 5.965l0 -2.666 0.353 0 0 2.353 1.311 0 0 0.313 -1.664 0zm2.145 0l0 -2.666 0.354 0 0 2.666 -0.354 0zm0.971 0l0 -2.666 0.363 0 1.398 2.093 0 -2.093 0.339 0 0 2.666 -0.362 0 -1.399 -2.093 0 2.093 -0.339 0zm2.7 0l0 -2.666 1.925 0 0 0.313 -1.571 0 0 0.819 1.471 0 0 0.313 -1.471 0 0 0.908 1.634 0 0 0.313 -1.988 0z"/>
 </g>
</svg>
